<svg width="370" height="153" fill="none" xmlns="http://www.w3.org/2000/svg"><path d="M120.042 11.43C127.193 9 127.783 0 120.693 0c-2.003 0-4.287 1.37-5.889 4.17l-9.645 16.56a12.872 12.872 0 0 1-1.372 2c-2.464-3.39-1.743-8.45 1.713-10.67l-1.342-1.79c-7.472 4.75-5.278 18.48 7.191 18.48 10.616-.01 15.543-12.75 8.693-17.32ZM111.238 26a10.265 10.265 0 0 1-5.137-1.23 17.698 17.698 0 0 0 1.782-2.53l6.009-10.37 1.002.1c8.292 1.75 4.977 14.03-3.656 14.03Zm3.836-16.21 2.875-4.93c2.603-4.48 5.929-1.85 4.146 1.5-1.372 2.57-3.395 3.36-7.021 3.43Z" fill="#fff"/><path d="m259.603 19-.24.27a16.673 16.673 0 0 1-6.51 5c.581-.92 1.001-1.92 1.472-2.67l3.936-6.74c3.325-5.64-2.053-7.53-5.689-4.28l.721-1.23h-3.565L244.16 19l-.241.27a7.64 7.64 0 0 1-5.378 2.63l3.355-5.78c2.163-3.73.17-7.25-3.185-7.25-2.744 0-4.867 1.09-6.92 4.65l-1.753 3-1.462 2.48-.19.22c-2.574 3-5.068 5.34-6.65 5.34-.792 0-1.232-.55-.411-2l5.138-9c1.542-2.7.07-4.65-1.923-4.65-1.542 0-3.185.85-5.008 2.7l5.689-9.89h-3.565L211.771 19l-.201.23a22.02 22.02 0 0 1-4.256 3.87c1.132-3.39.891-8.59 3.084-13.14l-2.674-1.44c-1.472 2-4.697 6.67-7.912 10.43l-.24.27c-2.574 3-5.068 5.34-6.65 5.34-.791 0-1.232-.55-.411-2l3.566-6.23c1.232-2.16.651-3.42-.511-4.82l-2.003-2.39a1.404 1.404 0 0 1-.391-1.013 1.396 1.396 0 0 1 .451-.987l.11-.09-1.853-2c-2.003 1.81-2.193 3.83-.921 5.47l.301.41c-1.573 2.22-3.696 5.23-6.01 8l-.24.27c-2.574 3-5.859 5.34-8.363 5.34-2.193 0-3.495-1.37-1.852-4.24l.34-.62c2.294 1 6.61.51 9.284-4.1l.511-.89c1.923-3.28.07-5.75-2.844-5.75a7.55 7.55 0 0 0-6.65 4.08l-3.476 6-.21.24a7.581 7.581 0 0 1-5.378 2.63l3.355-5.78a8.547 8.547 0 0 0 1.342-4.09 3.008 3.008 0 0 0-.747-2.172 3.02 3.02 0 0 0-2.067-1.008h-.421a4.186 4.186 0 0 0-2.333.79l4.526-7.83h-3.635L156.417 19l-.191.21c-2.573 3-5.067 5.34-6.65 5.34-.791 0-1.231-.55-.41-2l3.565-6.23c1.232-2.16.651-3.42-.511-4.82l-2.003-2.39a1.387 1.387 0 0 1-.26-1.554c.079-.17.191-.321.33-.446l.141-.11-1.853-2c-2.003 1.81-2.193 3.83-.922 5.47l.311.41c-1.572 2.22-3.706 5.23-6.009 8l-.24.27c-2.574 3-5.068 5.34-6.651 5.34-.791 0-1.231-.55-.41-2l5.759-10.06h-2.003A3.69 3.69 0 0 0 134.644 9c-1.923 0-4.587 1.51-6.099 4.11l-5.008 8.62c-1.512 2.64-.441 5.06 2.434 5.06 1.442 0 3.225-.92 4.937-2.33.17 1.37 1.272 2.33 3.085 2.33 2.944 0 6.339-3.15 9.284-6.57 1.712-2 3.004-3.76 5.889-7.63l.481.58a1.74 1.74 0 0 1 .21 2l-3.766 6.53c-1.502 2.64-.441 5.06 2.434 5.06 2.063 0 4.346-1.55 6.55-3.65 0 2.43 1.812 3.8 4.116 3.8a7.893 7.893 0 0 0 6.009-3.3c.263.02.528.02.791 0 1.666-.08 3.288-.56 4.727-1.4-.19 2.57 1.683 4.52 4.828 4.52 4.006 0 8.012-3.15 11.016-6.57 1.713-2 3.005-3.76 5.889-7.63l.481.58a1.742 1.742 0 0 1 .21 2l-3.765 6.53c-1.513 2.64-.441 5.06 2.433 5.06 2.875 0 6.34-3.15 9.284-6.57 2.003-2.33 3.806-4.82 5.068-6.5-1.402 3.7-.651 10.33-4.006 10.33a2.003 2.003 0 0 1-1.683-1.3l-2.173 1.16a3.88 3.88 0 0 0 3.906 2.87c.341 0 .671 0 1.002-.07h.1a12.619 12.619 0 0 0 5.478-2.36l-1.222 2.12h3.596l5.408-9.41c5.488-6.88 7.912-6 6.369-3.35l-4.627 8c-1.512 2.63-.44 5.06 2.434 5.06 2.073 0 4.357-1.56 6.56-3.67 0 4.54 6.3 5.42 10.165.55h.792a9.7 9.7 0 0 0 3.815-.94l-6.489 11.24h3.595l10.656-18.51c4.006-5.41 6.48-3.42 5.549-1.81l-5.379 9.31a1.368 1.368 0 0 1-1.287.895 1.374 1.374 0 0 1-1.286-.895l-2.003 1c.228.85.739 1.597 1.449 2.118a3.89 3.89 0 0 0 2.456.752h.211c5.178-.1 8.563-3.18 11.477-6.57a2.244 2.244 0 0 0-1.422-1.15Zm-81.123-5c2.003-3.52 5.689-2.94 3.566.75l-.511.89c-1.713 2.91-4.006 2.84-5.348 2.36l2.293-4Zm-45.679 5.61c-2.163 3.39-4.286 5-5.759 5-.791 0-1.232-.55-.41-2l5.007-8.66c1.923-3.32 5.719-2.46 4.006.75l-2.844 4.91Zm26.831 4.86a1.323 1.323 0 0 1-1.392-1.21.855.855 0 0 1 0-.16 4.058 4.058 0 0 1 .62-1.85l1.202-2.25a5.24 5.24 0 0 0 2.264 3.69 3.34 3.34 0 0 1-2.704 1.74l.01.04Zm3.715-3.47a3.834 3.834 0 0 1-1.512-3.22c0-2.53 2.464-6.67 4.487-6.67a1.364 1.364 0 0 1 1.362 1.37.965.965 0 0 1 0 .17 4.249 4.249 0 0 1-.681 2.12L163.347 21Zm73.191-1.78h-.18a2.108 2.108 0 0 0-2.093 2.11c.006.423.124.837.34 1.2v.07c-1.682 2.87-5.759 2.33-3.635-1.37l4.386-7.61c2.504-4.24 5.929-2.57 3.766 1.13l-2.584 4.47ZM0 73.26l5.719-5.72 5.728 5.72L5.72 79 0 73.26Zm352.534 0 5.728-5.71 5.719 5.72-5.699 5.73-5.748-5.74Z" fill="#fff"/><path d="M46.871 73.48h2.083v-8.32h3.275v-2.09h-5.358v10.41ZM61.784 75V62.32a4.555 4.555 0 0 0-2.564-4.07c.317.619.482 1.305.48 2v12.68a4.474 4.474 0 0 1-1.612 3.51 5.2 5.2 0 0 1 1.663 3.69v14.1a4.616 4.616 0 0 1-1.391 3.242 4.63 4.63 0 0 1-3.276 1.318H41.553v2.08h15.664a4.633 4.633 0 0 0 3.212-1.353 4.617 4.617 0 0 0 1.355-3.207v-14.1a5.183 5.183 0 0 0-1.693-3.69A4.431 4.431 0 0 0 61.784 75Z" fill="#636466"/><path d="M46.87 91.34h2.084V83h3.275v-2.13h-5.358v10.47Zm33.05 0h2.084V65.16h3.275v-2.09h-5.348l-.01 28.27Z" fill="#636466"/><path d="M92.28 58.25c.317.619.482 1.305.48 2v34a4.617 4.617 0 0 1-1.355 3.207 4.63 4.63 0 0 1-3.212 1.353H77.117a4.513 4.513 0 0 1-2.003-.48 4.562 4.562 0 0 0 4.076 2.56h11.097a4.633 4.633 0 0 0 3.212-1.353 4.616 4.616 0 0 0 1.355-3.207v-34a4.544 4.544 0 0 0-2.574-4.08Zm20.711 15.23h2.083v-8.32h3.285v-2.09h-5.368v10.41Zm12.269 9a4.458 4.458 0 0 0 2.593-4.06v-16.1a4.544 4.544 0 0 0-2.573-4.1c.312.62.477 1.305.48 2v16.15a4.448 4.448 0 0 1-2.574 4.07l3.085 18.35h-5.689l.351 2.08h7.401l-3.074-18.39Zm-9.435-1.65h-2.834v17.96h-5.318v2.09h7.401V83h1.102l-.351-2.17ZM145.06 91.3h2.093V65.16h3.275v-2.09h-5.368V91.3Z" fill="#636466"/><path d="M157.418 58.25c.319.619.484 1.304.481 2v34a4.619 4.619 0 0 1-1.355 3.207 4.631 4.631 0 0 1-3.212 1.353h-11.117a4.513 4.513 0 0 1-2.003-.48 4.563 4.563 0 0 0 4.076 2.56h11.107a4.631 4.631 0 0 0 3.212-1.353 4.62 4.62 0 0 0 1.355-3.207v-34a4.546 4.546 0 0 0-2.544-4.08Zm20.702 33.09h2.093V65.16h3.275v-2.09h-5.368v28.27Z" fill="#636466"/><path d="M190.478 58.25c.318.619.482 1.305.481 2v34a4.62 4.62 0 0 1-1.355 3.207 4.631 4.631 0 0 1-3.212 1.353h-13.58v2.08h15.663a4.631 4.631 0 0 0 3.212-1.353 4.615 4.615 0 0 0 1.355-3.207v-34a4.552 4.552 0 0 0-2.564-4.08Zm21.082-.48v41h-5.318v2.09h7.401V57.77h-2.083Zm32.93 0v41h-5.909l.591 2.09h7.411V57.77h-2.093ZM231.661 80v18.79h-5.318v2.09h7.401V87.19L231.661 80Zm32.319 3h6.119v-2.13h-8.203a4.517 4.517 0 0 1-2.003-.48A4.541 4.541 0 0 0 263.98 83Zm2.834 2.73-2.093.48v5.13h2.093v-5.61Zm10.265-27.48c.318.619.482 1.305.481 2V69l-5.378 1.24v2.56l7.461-1.73v-8.75a4.553 4.553 0 0 0-2.564-4.07Z" fill="#636466"/><path d="M277.079 76.05c.318.619.482 1.305.481 2v16.2a4.615 4.615 0 0 1-1.355 3.207 4.63 4.63 0 0 1-3.212 1.353h-11.107a4.514 4.514 0 0 1-2.003-.48 4.563 4.563 0 0 0 4.076 2.56h11.097a4.631 4.631 0 0 0 3.212-1.353 4.615 4.615 0 0 0 1.355-3.207V80.12a4.55 4.55 0 0 0-2.544-4.07Zm-12.358-13v10.43h2.093v-8.32h3.275v-2.09l-5.368-.02Zm33.731 17.82h-.681v17.92h-5.328v2.09h7.401V85.35l-1.392-4.48Zm15.163-23.1h-2.745l-6.239 19.41 6.911 21.61h-6.01l.581 1.84.06.25h7.462l-6.911-21.62 6.911-21.49h-.02Zm17.406 0v41h-5.308v2.09h7.391V57.77h-2.083Z" fill="#636466"/><path d="M168.155 123.85h1.412c5.438.28 9.704 1.73 12.409 4.72 2.744-3 7.01-4.46 12.478-4.72h1.352c12.129.82 17.657 9.5 27.342 13.19a11.201 11.201 0 0 0 4.797 1c2.484-.27 4.066-2.78 3.746-5.58-.341-3-3.285-5.61-6.57-4.17a4.428 4.428 0 0 0-1.172.8c-.25.23-.531.83-1.172.61-.601-.5 0-1.23.311-1.65a6.001 6.001 0 0 1 2.575-2.438 6.021 6.021 0 0 1 3.504-.562c5.639.4 10.686 5.34 9.825 12.82C237.069 149 226.874 152 214.785 153h-3.936a48.431 48.431 0 0 1-28.813-11 49.117 49.117 0 0 1-28.944 11h-3.866c-12.178-1.07-22.474-4-24.267-15.46-.681-8.16 4.187-12.17 9.835-12.58a6.11 6.11 0 0 1 6.149 3c.281.46.802 1.17.311 1.72-.611.11-.911-.37-1.172-.61a4 4 0 0 0-2.824-1.23c-3.866-.14-6.089 4.15-4.547 7.61a4.346 4.346 0 0 0 3.375 2.52c1.652.011 3.288-.33 4.797-1a24.036 24.036 0 0 0 3.876-1.9c7.361-4.26 13.12-10.31 23.396-11.22Z" fill="#fff"/><path d="m362.188 82.91 5.719-5.72L370 79.28 364.271 85l-2.083-2.09Zm-352.533 0 5.718-5.71 2.093 2.08L11.778 85l-2.123-2.09Z" fill="#636466"/><path d="M55.734 69a4.434 4.434 0 0 1-1.652 3.48 5.199 5.199 0 0 1 1.662 3.69v14.1a4.617 4.617 0 0 1-1.355 3.207 4.63 4.63 0 0 1-3.212 1.353H35.504V51.72h15.663a4.59 4.59 0 0 1 3.224 1.341 4.576 4.576 0 0 1 1.343 3.219V69Zm-7.461-9.89h-5.368v10.41h5.368V59.11Zm0 17.8h-5.368v10.47h5.368V76.91Zm35.954-25.19a4.59 4.59 0 0 1 3.224 1.341 4.576 4.576 0 0 1 1.343 3.219v34a4.616 4.616 0 0 1-1.355 3.207 4.63 4.63 0 0 1-3.212 1.353H73.111a4.61 4.61 0 0 1-3.218-1.347 4.596 4.596 0 0 1-1.35-3.213v-34c0-1.21.482-2.37 1.338-3.224a4.57 4.57 0 0 1 3.23-1.336h11.116Zm-2.904 7.39h-5.358v28.27h5.368l-.01-28.27Zm33.561 35.72-3.005-17.92h-2.834v17.92h-7.401V51.72h15.663a4.542 4.542 0 0 1 4.173 2.824c.225.551.338 1.141.334 1.736v16.14a4.461 4.461 0 0 1-2.634 4.06l3.085 18.35h-7.381Zm-.491-35.72h-5.368v10.41h5.368V59.11Zm34.973-7.39a4.588 4.588 0 0 1 4.567 4.56v34a4.619 4.619 0 0 1-1.355 3.207 4.631 4.631 0 0 1-3.212 1.353h-11.097a4.6 4.6 0 0 1-4.567-4.56v-34a4.568 4.568 0 0 1 4.507-4.56h11.157Zm-2.904 7.39h-5.369v28.27h5.369V59.11Zm35.964-7.39a4.592 4.592 0 0 1 3.224 1.341 4.576 4.576 0 0 1 1.343 3.219v34a4.619 4.619 0 0 1-1.355 3.207 4.631 4.631 0 0 1-3.212 1.353h-15.664V51.72h15.664Zm-2.894 7.39h-5.368v28.27h5.368V59.11Zm20.661-7.39h7.401v43.11h-7.401V51.72Zm40.341 0v43.11h-7.401L227.705 76v18.83h-7.372V51.72h7.342l5.428 17.67V51.72h7.431Zm28.493 17.8a4.592 4.592 0 0 1 3.224 1.341 4.576 4.576 0 0 1 1.343 3.219v16.2a4.619 4.619 0 0 1-1.355 3.207 4.63 4.63 0 0 1-3.212 1.353H257.93a4.603 4.603 0 0 1-4.547-4.56v-8.87l7.402-1.72v7.7h5.368V76.91h-8.203a4.561 4.561 0 0 1-4.216-2.8 4.561 4.561 0 0 1-.351-1.74V56.28c0-1.206.479-2.363 1.331-3.217a4.571 4.571 0 0 1 3.216-1.343h11.117a4.592 4.592 0 0 1 3.224 1.341 4.576 4.576 0 0 1 1.343 3.219V65l-7.461 1.73v-7.62h-5.368v10.41h8.242Zm31.648 3.7 6.91 21.62h-7.461l-.06-.25-5.548-17.67h-.681v17.91h-7.401V51.72h7.401v17.8h.611l5.678-17.8h7.522l-6.971 21.5Zm19.029-21.5h7.401v43.11h-7.401V51.72Z" fill="#fff"/></svg>