<svg width="226" height="30" fill="none" xmlns="http://www.w3.org/2000/svg"><path d="M3.494 9.668 0 13.158l3.494 3.49 3.495-3.49-3.495-3.49ZM218.806 9.682l-3.495 3.488 3.495 3.489 3.496-3.489-3.496-3.488Z" fill="#fff"/><path d="M28.625 13.282h1.28V8.2h2.002V6.931h-3.282v6.351ZM37.731 14.211v-7.74a2.792 2.792 0 0 0-1.56-2.476c.187.375.286.789.29 1.208v7.78a2.7 2.7 0 0 1-1.001 2.137 3.205 3.205 0 0 1 1 2.257v8.588a2.823 2.823 0 0 1-.825 1.956c-.52.52-1.221.818-1.957.83h-8.296v1.209h9.567a2.835 2.835 0 0 0 1.957-.83c.519-.52.815-1.222.825-1.956v-8.559a3.179 3.179 0 0 0-1-2.257 2.727 2.727 0 0 0 1-2.147Z" fill="#636466"/><path d="M28.625 24.178h1.28v-5.113h2.002v-1.279h-3.282v6.392ZM48.82 24.178h1.27V8.199h2.002V6.931H48.82v17.247Z" fill="#636466"/><path d="M56.355 3.995c.196.373.299.787.3 1.208v20.762a2.823 2.823 0 0 1-.828 1.96 2.835 2.835 0 0 1-1.963.827h-6.775a2.787 2.787 0 0 1-1.221-.3 2.789 2.789 0 0 0 2.491 1.508h6.786a2.835 2.835 0 0 0 1.956-.83c.52-.52.815-1.222.826-1.956V6.47a2.782 2.782 0 0 0-1.572-2.476ZM69.005 13.282h1.281V8.2h2.002V6.931h-3.283v6.351ZM76.5 18.795a2.72 2.72 0 0 0 1.562-2.477V6.471a2.792 2.792 0 0 0-1.551-2.476c.188.382.287.802.29 1.228v9.857a2.713 2.713 0 0 1-1.581 2.477l1.891 11.205H73.65l.21 1.198h4.523l-1.881-11.165ZM70.746 17.786h-1.74v10.946h-3.243V30h4.523V19.065h.67l-.21-1.279ZM88.6 24.178h1.271V8.199h2.002V6.931H88.6v17.247Z" fill="#636466"/><path d="M96.136 3.995c.19.375.293.788.3 1.208v20.762a2.824 2.824 0 0 1-.83 1.96 2.835 2.835 0 0 1-1.962.827h-6.775a2.787 2.787 0 0 1-1.221-.3 2.789 2.789 0 0 0 2.492 1.508h6.775a2.835 2.835 0 0 0 1.963-.828c.521-.52.819-1.223.829-1.958V6.47a2.782 2.782 0 0 0-1.571-2.476ZM108.785 24.178h1.281V8.199h2.002V6.931h-3.283v17.247Z" fill="#636466"/><path d="M116.331 3.995c.187.375.287.789.29 1.208v20.762a2.822 2.822 0 0 1-.825 1.956c-.52.52-1.221.818-1.957.83h-8.296v1.209h9.547a2.823 2.823 0 0 0 2.782-2.786V6.47a2.793 2.793 0 0 0-1.541-2.476ZM129.201 3.685v25.047h-3.243V30h4.524V3.685h-1.281ZM149.326 3.685v25.047h-3.623l.371 1.268h4.523V3.685h-1.271ZM141.49 17.227v11.505h-3.252V30h4.523v-8.349l-1.271-4.424ZM161.215 19.065h3.743v-1.279h-5.004a2.788 2.788 0 0 1-1.221-.29 2.76 2.76 0 0 0 2.482 1.569ZM162.946 20.752l-1.27.3v3.126h1.27v-3.426ZM169.221 3.995c.188.375.287.789.29 1.208v5.343l-3.282.759v1.568l4.553-1.059V6.471a2.796 2.796 0 0 0-1.561-2.477Z" fill="#636466"/><path d="M169.221 14.85c.189.375.288.789.291 1.209v9.906a2.833 2.833 0 0 1-2.793 2.786h-6.775a2.72 2.72 0 0 1-1.211-.299 2.775 2.775 0 0 0 2.482 1.508H168a2.835 2.835 0 0 0 1.957-.83c.519-.52.815-1.222.825-1.956v-9.837a2.782 2.782 0 0 0-1.561-2.487ZM161.676 6.93v6.352h1.271V8.2h2.011V6.931h-3.282ZM182.281 17.786h-.41v10.946h-3.253V30h4.524v-9.477l-.861-2.737ZM191.538 3.685h-1.681l-3.803 11.844 4.213 13.203h-3.673l.351 1.118.04.15h4.553l-4.213-13.192 4.213-13.123ZM202.176 3.685v25.047h-3.252V30h4.523V3.685h-1.271ZM224.726 15.591l-3.495 3.489 1.273 1.27L226 16.863l-1.274-1.27ZM9.423 15.571 5.927 19.06l1.274 1.27 3.496-3.488-1.274-1.27Z" fill="#636466"/><path d="M34.029 10.526a2.703 2.703 0 0 1-1.001 2.137 3.207 3.207 0 0 1 1 2.257v8.609a2.823 2.823 0 0 1-.825 1.955c-.52.52-1.221.818-1.957.83H21.69V0h9.567c.737.008 1.44.305 1.959.826.519.521.811 1.226.814 1.96v7.74Zm-4.554-5.992h-3.272v6.352h3.282l-.01-6.352Zm0 10.855h-3.272v6.392h3.282l-.01-6.391ZM51.442 0c.74.003 1.448.297 1.971.82.523.521.818 1.228.82 1.966V23.53a2.823 2.823 0 0 1-.828 1.958 2.835 2.835 0 0 1-1.963.828h-6.775a2.805 2.805 0 0 1-1.972-.82 2.794 2.794 0 0 1-.82-1.966V2.786A2.77 2.77 0 0 1 43.596.21C43.936.07 44.3 0 44.667 0h6.775ZM49.67 4.514h-3.272v17.247h3.272V4.514ZM70.166 26.315 68.325 15.33h-1.742v10.985H62.05V0h9.567a2.785 2.785 0 0 1 1.951.827c.516.522.804 1.226.801 1.96v9.846a2.723 2.723 0 0 1-1.591 2.477l1.891 11.205h-4.503Zm-.3-21.801h-3.283v6.352h3.283V4.514ZM91.222 0c.74.003 1.448.297 1.971.82.523.521.819 1.228.821 1.966V23.53a2.823 2.823 0 0 1-.83 1.958 2.835 2.835 0 0 1-1.962.828h-6.775a2.805 2.805 0 0 1-1.972-.82 2.794 2.794 0 0 1-.82-1.966V2.786A2.77 2.77 0 0 1 83.377.21c.34-.14.703-.21 1.07-.209h6.775Zm-1.771 4.514h-3.273v17.247h3.273V4.514ZM111.417 0c.738.005 1.444.3 1.965.823a2.79 2.79 0 0 1 .817 1.963V23.53a2.823 2.823 0 0 1-.825 1.955 2.835 2.835 0 0 1-1.957.83h-9.567V0h9.567Zm-1.771 4.514h-3.282v17.247h3.282V4.514ZM122.266 0h4.523v26.315h-4.523V0ZM146.894 0v26.315h-4.513l-3.273-11.505v11.505h-4.523V0h4.483l3.313 10.786V0h4.513ZM164.308 10.866a2.802 2.802 0 0 1 2.822 2.776v9.887a2.828 2.828 0 0 1-2.782 2.786h-6.826a2.798 2.798 0 0 1-2.782-2.786v-5.413l4.514-1.049v4.694h3.282V15.37h-5.004a2.776 2.776 0 0 1-2.573-1.713c-.139-.337-.21-.699-.209-1.064V2.786a2.788 2.788 0 0 1 .808-1.966 2.777 2.777 0 0 1 1.964-.82h6.786a2.81 2.81 0 0 1 1.99.808 2.79 2.79 0 0 1 .832 1.978V8.12l-4.554.999V4.514h-3.282v6.352h5.014ZM183.632 13.123l4.213 13.192h-4.553v-.15l-3.393-10.795h-.41v10.985h-4.523V0h4.523v10.866h.34L183.252 0h4.593l-4.213 13.123ZM195.231 0h4.523v26.315h-4.523V0Z" fill="#fff"/></svg>