<svg width="370" height="100" fill="none" xmlns="http://www.w3.org/2000/svg"><path d="M120.032 11.33c7.161-2.41 7.751-11.33.651-11.33-1.943 0-4.276 1.358-5.889 4.133l-9.634 16.414a13.056 13.056 0 0 1-1.372 1.982c-2.464-3.35-1.743-8.375 1.712-10.575l-1.342-1.775c-7.47 4.708-5.277 18.307 7.191 18.307 10.606 0 15.543-12.627 8.683-17.157Zm-8.803 14.44a10.362 10.362 0 0 1-5.138-1.218 19.236 19.236 0 0 0 1.783-2.508l6.009-10.279 1.001.1c8.303 1.734 4.978 13.906-3.655 13.906Zm3.836-16.066 2.884-4.887c2.604-4.44 5.929-1.834 4.146 1.487-1.372 2.547-3.395 3.33-7.03 3.4Z" fill="#fff"/><path d="m259.598 18.832-.24.278a16.834 16.834 0 0 1-6.51 4.956c.581-.912 1.002-1.893 1.473-2.647l3.935-6.68c3.325-5.59-2.053-7.454-5.688-4.232l.721-1.22h-3.565l-5.568 9.545-.241.268a7.683 7.683 0 0 1-2.422 1.843 7.757 7.757 0 0 1-2.956.764l3.355-5.73c2.153-3.696.17-7.185-3.185-7.185-2.744 0-4.867 1.08-6.92 4.609l-1.752 3.023-1.463 2.408-.19.218c-2.574 2.974-5.067 5.293-6.65 5.293-.791 0-1.231-.545-.41-1.933l5.137-8.92c1.543-2.676.07-4.609-1.912-4.609-1.543 0-3.195.842-5.008 2.676l5.689-9.803h-3.566l-9.904 17.078-.201.228a22.011 22.011 0 0 1-4.246 3.836c1.132-3.36.901-8.514 3.085-13.024l-2.674-1.427c-1.473 1.982-4.687 6.611-7.912 10.348l-.24.267c-2.564 2.974-5.068 5.293-6.64 5.293-.791 0-1.242-.545-.421-1.933l3.565-6.175c1.232-2.14.651-3.39-.51-4.777l-2.003-2.379a1.354 1.354 0 0 1-.166-1.563c.092-.163.216-.306.366-.42l-1.853-1.982c-2.003 1.794-2.193 3.797-.921 5.422l.3.357c-1.582 2.21-3.705 5.194-6.009 7.93l-.24.267c-2.574 2.973-5.859 5.293-8.362 5.293-2.194 0-3.495-1.358-1.853-4.203l.34-.614c2.304.99 6.62.505 9.294-4.074l.511-.882c1.913-3.251.07-5.69-2.844-5.69a7.593 7.593 0 0 0-3.917 1.104 7.485 7.485 0 0 0-2.763 2.96l-3.485 5.838-.211.238a7.628 7.628 0 0 1-2.423 1.854c-.926.45-1.935.71-2.965.763l3.365-5.739a8.487 8.487 0 0 0 1.332-4.054 2.95 2.95 0 0 0-.884-2.298 3.031 3.031 0 0 0-2.33-.853c-.84.02-1.654.293-2.334.782l4.527-7.77h-3.635l-9.995 17.077-.181.209c-2.573 2.973-5.077 5.292-6.649 5.292-.792 0-1.232-.545-.411-1.932l3.565-6.175c1.232-2.131.651-3.39-.52-4.778l-2.003-2.379a1.363 1.363 0 0 1-.155-1.563c.092-.163.216-.305.365-.42l-1.853-1.981c-2.003 1.794-2.193 3.796-.931 5.431l.31.407c-1.572 2.2-3.695 5.184-6.009 7.929l-.24.268c-2.564 2.973-5.068 5.293-6.64 5.293-.791 0-1.242-.546-.42-1.933l5.758-9.972h-2.003a3.623 3.623 0 0 0-1.121-2.575 3.7 3.7 0 0 0-2.634-1.032c-1.913 0-4.587 1.486-6.1 4.063l-5.007 8.544c-1.512 2.617-.441 5.026 2.434 5.026 1.432 0 3.214-.922 4.937-2.31.17 1.358 1.262 2.31 3.085 2.31 2.944 0 6.329-3.122 9.283-6.512 1.713-1.983 3.005-3.727 5.889-7.563l.481.575a1.72 1.72 0 0 1 .2 1.982l-3.766 6.473c-1.502 2.616-.44 5.025 2.434 5.025 2.063 0 4.346-1.537 6.55-3.618 0 2.409 1.812 3.767 4.106 3.767a7.962 7.962 0 0 0 3.427-.945 7.877 7.877 0 0 0 2.662-2.336c.26.015.521.015.781 0a10.526 10.526 0 0 0 4.737-1.388c-.19 2.547 1.682 4.48 4.827 4.48 4.006 0 8.012-3.122 11.016-6.512 1.713-1.982 3.005-3.727 5.899-7.563l.481.575a1.736 1.736 0 0 1 .2 1.983l-3.765 6.482c-1.513 2.607-.451 5.015 2.433 5.015s6.34-3.122 9.284-6.512c2.003-2.3 3.806-4.777 5.067-6.442-1.402 3.667-.651 10.239-4.006 10.239a2.016 2.016 0 0 1-1.022-.408 1.98 1.98 0 0 1-.65-.881l-2.233 1.16c.228.842.74 1.582 1.449 2.099.71.517 1.576.78 2.456.745a8.35 8.35 0 0 0 1.002-.069h.11a12.712 12.712 0 0 0 5.468-2.34l-1.222 2.102h3.596l5.338-9.317c5.478-6.81 7.911-5.947 6.369-3.32l-4.627 7.929c-1.502 2.607-.44 5.015 2.434 5.015 2.073 0 4.366-1.536 6.559-3.627 0 4.49 6.31 5.372 10.166.545h.791a10.098 10.098 0 0 0 3.815-.932l-6.489 11.24h3.595l10.656-18.347c4.006-5.362 6.479-3.39 5.548-1.804l-5.378 9.228c-.581.991-1.913 1.328-2.564 0l-2.003.991c.229.843.74 1.583 1.45 2.1.71.517 1.576.78 2.456.745h.2c5.178-.099 8.573-3.152 11.477-6.512a2.286 2.286 0 0 0-1.352-1.269Zm-81.12-4.956c2.053-3.489 5.689-2.914 3.566.744l-.521.882c-1.713 2.884-4.006 2.815-5.338 2.34l2.293-3.965Zm-45.677 5.561c-2.153 3.36-4.277 4.956-5.749 4.956-.791 0-1.242-.535-.42-1.923l5.007-8.584c1.913-3.29 5.719-2.438 4.006.744l-2.844 4.807Zm26.829 4.817a1.346 1.346 0 0 1-1.029-.359 1.315 1.315 0 0 1-.413-.999 3.947 3.947 0 0 1 .621-1.834l1.252-2.23a5.15 5.15 0 0 0 .73 2.077c.39.633.913 1.175 1.533 1.59a3.34 3.34 0 0 1-1.136 1.2c-.474.3-1.016.477-1.578.515l.02.04Zm3.716-3.44a3.824 3.824 0 0 1-1.148-1.407 3.775 3.775 0 0 1-.364-1.774c0-2.517 2.473-6.621 4.496-6.621a1.37 1.37 0 0 1 1.013.467 1.343 1.343 0 0 1 .319 1.06 4.257 4.257 0 0 1-.681 2.11l-3.635 6.166Zm73.188-1.764h-.18a2.124 2.124 0 0 0-1.485.623 2.08 2.08 0 0 0-.608 1.479c.004.42.122.83.34 1.19v.069c-1.682 2.844-5.758 2.309-3.635-1.358l2.714-4.649 1.713-2.874c2.493-4.213 5.928-2.548 3.765 1.12l-2.624 4.4ZM5.719 66.958 0 72.624l5.717 5.669 5.718-5.667-5.716-5.668ZM358.235 66.954l-5.723 5.663 5.721 5.663 5.723-5.662-5.721-5.664Z" fill="#fff"/><path d="M46.874 72.832h2.083v-8.247h3.275v-2.071h-5.358v10.318ZM61.786 74.338V61.77a4.505 4.505 0 0 0-.708-2.378 4.571 4.571 0 0 0-1.866-1.656c.313.615.478 1.294.48 1.983v12.568a4.384 4.384 0 0 1-.428 1.928 4.429 4.429 0 0 1-1.234 1.55 5.11 5.11 0 0 1 1.21 1.661c.285.629.44 1.308.453 1.997V93.41a4.556 4.556 0 0 1-1.355 3.169 4.65 4.65 0 0 1-3.202 1.34h-13.58v2.072h15.663a4.67 4.67 0 0 0 3.207-1.346 4.575 4.575 0 0 0 1.36-3.174V81.485c-.02-.69-.18-1.37-.472-1.999a5.166 5.166 0 0 0-1.22-1.659c.528-.418.955-.949 1.248-1.553a4.422 4.422 0 0 0 .444-1.936Z" fill="#636466"/><path d="M46.874 90.534h2.083v-8.316h3.275v-2.061h-5.358v10.377ZM79.933 90.534h2.083V64.585h3.275v-2.071h-5.358v28.02Z" fill="#636466"/><path d="M92.281 57.736c.31.617.474 1.294.48 1.983v33.7a4.566 4.566 0 0 1-1.357 3.176 4.66 4.66 0 0 1-3.21 1.343H77.12a4.465 4.465 0 0 1-2.003-.475c.37.758.95 1.398 1.67 1.846.721.449 1.554.688 2.406.691h11.086a4.65 4.65 0 0 0 3.209-1.337 4.556 4.556 0 0 0 1.358-3.173v-33.7a4.516 4.516 0 0 0-.7-2.387 4.58 4.58 0 0 0-1.864-1.667ZM112.992 72.832h2.083v-8.247h3.285v-2.071h-5.368v10.318ZM125.25 81.792a4.466 4.466 0 0 0 1.891-1.637c.46-.713.703-1.541.703-2.387V61.77a4.477 4.477 0 0 0-.697-2.394 4.535 4.535 0 0 0-1.877-1.66c.313.615.478 1.294.48 1.983v15.997a4.394 4.394 0 0 1-.687 2.388 4.461 4.461 0 0 1-1.876 1.646l3.084 18.188h-5.688l.35 2.062h7.401l-3.084-18.188ZM115.826 80.157h-2.834v17.761h-5.318v2.072h7.401V82.218h1.101l-.35-2.061ZM145.059 90.534h2.093V64.585h3.275v-2.071h-5.368v28.02Z" fill="#636466"/><path d="M157.407 57.736c.314.615.479 1.294.481 1.983v33.7a4.553 4.553 0 0 1-1.351 3.175 4.65 4.65 0 0 1-3.206 1.344h-11.116a4.423 4.423 0 0 1-2.003-.475c.37.756.948 1.395 1.666 1.844.719.448 1.55.688 2.4.693h11.106a4.66 4.66 0 0 0 3.206-1.34 4.569 4.569 0 0 0 1.361-3.17v-33.7a4.508 4.508 0 0 0-.69-2.384 4.567 4.567 0 0 0-1.854-1.67ZM178.118 90.534h2.093V64.585h3.275v-2.071h-5.368v28.02Z" fill="#636466"/><path d="M190.466 57.736c.314.615.479 1.294.481 1.983v33.7a4.558 4.558 0 0 1-1.351 3.175 4.65 4.65 0 0 1-3.206 1.344h-13.58V100h15.663a4.66 4.66 0 0 0 3.206-1.34 4.569 4.569 0 0 0 1.361-3.17v-33.7a4.506 4.506 0 0 0-.703-2.39 4.574 4.574 0 0 0-1.871-1.664ZM211.557 57.26v40.658h-5.317v2.072h7.4V57.26h-2.083ZM244.486 57.26v40.658h-5.909l.591 2.072h7.411V57.26h-2.093ZM231.657 79.245v18.673h-5.308v2.072h7.401V86.42l-2.093-7.175ZM263.965 82.268h6.119v-2.111h-8.202a4.542 4.542 0 0 1-2.003-.476c.364.77.941 1.421 1.664 1.88a4.573 4.573 0 0 0 2.422.707ZM266.809 84.964l-2.093.486v5.084h2.093v-5.57ZM277.064 57.736c.314.615.479 1.294.481 1.983v8.672l-5.378 1.24v2.537l7.461-1.705V61.77a4.476 4.476 0 0 0-.699-2.38 4.545 4.545 0 0 0-1.865-1.654Z" fill="#636466"/><path d="M277.064 75.38c.315.613.48 1.293.481 1.982v16.037a4.554 4.554 0 0 1-1.351 3.175 4.65 4.65 0 0 1-3.206 1.344h-11.106a4.504 4.504 0 0 1-2.003-.475 4.55 4.55 0 0 0 1.673 1.842c.72.448 1.552.689 2.403.695h11.106a4.66 4.66 0 0 0 3.206-1.34 4.569 4.569 0 0 0 1.361-3.17V79.413a4.499 4.499 0 0 0-.704-2.377 4.574 4.574 0 0 0-1.86-1.657ZM264.716 62.514v10.318h2.093v-8.247h3.275v-2.071h-5.368ZM298.456 80.157h-.681v17.761h-5.308v2.072h7.401V84.597l-1.412-4.44ZM313.618 57.26h-2.754l-6.239 19.24 6.91 21.418h-6.019l.581 1.824.06.248h7.461l-6.91-21.43 6.91-21.3ZM331.024 57.26v40.658h-5.308v2.072h7.391V57.26h-2.083ZM367.91 76.518l-5.72 5.664 2.089 2.067L370 78.585l-2.09-2.067ZM15.407 76.555l-5.721 5.663 2.089 2.067 5.722-5.663-2.09-2.067Z" fill="#636466"/><path d="M55.737 68.391a4.393 4.393 0 0 1-.432 1.91 4.438 4.438 0 0 1-1.22 1.54 5.117 5.117 0 0 1 1.213 1.66 5.07 5.07 0 0 1 .459 1.997v13.986a4.566 4.566 0 0 1-1.361 3.17 4.661 4.661 0 0 1-3.206 1.34H35.507v-42.73H51.17a4.63 4.63 0 0 1 3.218 1.335 4.536 4.536 0 0 1 1.349 3.184v12.608Zm-7.471-9.773h-5.358v10.289h5.358V58.618Zm0 17.643h-5.358V86.61h5.358V76.261ZM84.23 51.264a4.63 4.63 0 0 1 3.217 1.335 4.536 4.536 0 0 1 1.349 3.184v33.7a4.566 4.566 0 0 1-1.361 3.17 4.66 4.66 0 0 1-3.206 1.34H73.113a4.61 4.61 0 0 1-3.22-1.326 4.516 4.516 0 0 1-1.347-3.183v-33.7a4.47 4.47 0 0 1 1.334-3.2 4.56 4.56 0 0 1 1.484-.979 4.6 4.6 0 0 1 1.749-.341h11.116Zm-2.895 7.325h-5.368v28.02h5.368V58.59ZM114.884 93.993l-3.004-17.761h-2.834v17.761h-7.401v-42.73h15.663a4.578 4.578 0 0 1 3.193 1.343 4.49 4.49 0 0 1 1.314 3.177v15.998a4.401 4.401 0 0 1-.72 2.395 4.461 4.461 0 0 1-1.914 1.63l3.084 18.188h-7.381Zm-.49-35.404h-5.368v10.318h5.368V58.589ZM149.365 51.264c1.208.01 2.364.49 3.218 1.335a4.535 4.535 0 0 1 1.349 3.184v33.7a4.564 4.564 0 0 1-1.361 3.17 4.66 4.66 0 0 1-3.206 1.34h-11.106a4.609 4.609 0 0 1-3.213-1.33 4.517 4.517 0 0 1-1.344-3.18v-33.7a4.484 4.484 0 0 1 1.331-3.195 4.596 4.596 0 0 1 3.226-1.324h11.106Zm-2.904 7.325h-5.358v28.02h5.358V58.59ZM182.424 51.264c1.208.01 2.364.49 3.218 1.335a4.535 4.535 0 0 1 1.349 3.184v33.7a4.569 4.569 0 0 1-1.361 3.17 4.66 4.66 0 0 1-3.206 1.34h-15.663v-42.73h15.663Zm-2.904 7.325h-5.358v28.02h5.358V58.59ZM200.191 51.264h7.4v42.73h-7.4v-42.73ZM240.52 51.264v42.73h-7.401l-5.428-18.664v18.663h-7.361v-42.73h7.341l5.428 17.525V51.264h7.421ZM269.022 68.907a4.61 4.61 0 0 1 3.217 1.333 4.516 4.516 0 0 1 1.34 3.187v16.057a4.558 4.558 0 0 1-1.354 3.169c-.851.842-2 1.323-3.203 1.34h-11.106a4.62 4.62 0 0 1-3.198-1.339 4.529 4.529 0 0 1-1.339-3.17v-8.792l7.401-1.715v7.632h5.368V76.232h-8.202a4.6 4.6 0 0 1-1.749-.342 4.555 4.555 0 0 1-1.483-.98 4.476 4.476 0 0 1-1.335-3.199V55.784c0-1.198.481-2.348 1.338-3.195a4.59 4.59 0 0 1 3.229-1.324h11.106c1.207.01 2.362.49 3.215 1.336a4.529 4.529 0 0 1 1.342 3.183v8.644l-7.461 1.704V58.59h-5.358v10.318h8.232ZM300.659 72.574l6.91 21.42h-7.461l-.06-.238-5.558-17.524h-.681v17.761h-7.381v-42.73h7.391v17.644h.561l5.678-17.643h7.521l-6.92 21.31ZM319.657 51.264h7.401v42.73h-7.401v-42.73Z" fill="#fff"/></svg>