<svg xmlns="http://www.w3.org/2000/svg" viewBox="0 0 32 32" width="32" height="32">
<circle class="black" cx="16" cy="16" r="16"/>
<path fill="white" d="M20.77 14.06c4.71,-1.6 5.09,-7.52 0.43,-7.52 -1.32,0 -2.82,0.9 -3.87,2.75l-6.35 10.89c-0.26,0.47 -0.56,0.91 -0.9,1.32 -1.62,-2.23 -1.15,-5.56 1.12,-7.02l-0.88 -1.18c-4.91,3.12 -3.47,12.16 4.73,12.16 6.99,-0.01 10.23,-8.39 5.72,-11.4zm-5.79 9.59c-1.18,0.03 -2.34,-0.25 -3.38,-0.81 0.44,-0.52 0.83,-1.08 1.17,-1.67l3.96 -6.82 0.65 0.07c5.46,1.15 3.28,9.23 -2.4,9.23zm2.52 -10.67l1.89 -3.24c1.72,-2.95 3.91,-1.22 2.73,0.99 -0.9,1.69 -2.23,2.21 -4.62,2.25z"/>
</svg>
