<svg width="36" height="36" viewBox="0 0 36 36" fill="none" xmlns="http://www.w3.org/2000/svg">
<g id="akar-icons:youtube-fill" clip-path="url(#clip0_21874_43)">
<g id="Group">
<g id="Group_2">
<path id="Vector" d="M35.25 9.76049C35.0462 9.03334 34.6491 8.37501 34.101 7.85549C33.5374 7.32 32.8467 6.93695 32.094 6.74249C29.277 5.99999 17.991 5.99999 17.991 5.99999C13.286 5.94646 8.58214 6.1819 3.906 6.70499C3.15328 6.91381 2.46384 7.30542 1.89899 7.84499C1.34399 8.37899 0.941995 9.03749 0.731995 9.75899C0.227534 12.4766 -0.017567 15.236 -5.01133e-06 18C-0.018005 20.7615 0.226495 23.52 0.731995 26.241C0.937495 26.9595 1.33799 27.615 1.8945 28.1445C2.45099 28.674 3.144 29.0565 3.906 29.259C6.7605 30 17.991 30 17.991 30C22.702 30.0536 27.4118 29.8182 32.094 29.295C32.8467 29.1005 33.5374 28.7175 34.101 28.182C34.6489 27.6626 35.0455 27.0042 35.2485 26.277C35.7661 23.5604 36.0178 20.7999 36 18.0345C36.0389 15.2574 35.7876 12.4838 35.25 9.75899V9.76049ZM14.403 23.136V12.8655L23.793 18.0015L14.403 23.136Z" fill="white"/>
</g>
</g>
</g>
<defs>
<clipPath id="clip0_21874_43">
<rect width="36" height="36" fill="white"/>
</clipPath>
</defs>
</svg>
