<svg xmlns="http://www.w3.org/2000/svg"><style>:root svg:not(:target){display:none}</style><svg fill="none" id="advantage-1" viewBox="0 0 95 94"><g fill="#826550"><path d="M90.282 28.35a47.296 47.296 0 0 0-8.495-13.076l-1.999 3.773a43.062 43.062 0 0 1 6.417 9.982c1.359-.23 2.718-.45 4.078-.679ZM90.003 43.492a45.7 45.7 0 0 1 .15 3.514 42.973 42.973 0 0 1-12.608 30.403 43.085 43.085 0 0 1-30.44 12.598c-.779 0-1.559-.02-2.338-.06.16.6.248 1.217.26 1.837a6.602 6.602 0 0 1-.4 2.146c.83 0 1.669.07 2.518.07a47.136 47.136 0 0 0 33.233-13.793A47.014 47.014 0 0 0 94.16 47.006a48.021 48.021 0 0 0-.41-6.149 37.577 37.577 0 0 1-3.747 2.635ZM4.048 47.006c0-7.551 1.992-14.97 5.774-21.508a43.029 43.029 0 0 1 15.77-15.74 43.1 43.1 0 0 1 43.072.026c1.08-.858 2.209-1.727 3.358-2.615a47.084 47.084 0 0 0-37.58-5.452 47.066 47.066 0 0 0-17.221 8.93A46.995 46.995 0 0 0 5.074 25.76a46.937 46.937 0 0 0 8.448 54.188 47.048 47.048 0 0 0 16.173 10.708 18.326 18.326 0 0 1-.57-4.582 43.02 43.02 0 0 1-18.271-15.863 42.94 42.94 0 0 1-6.805-23.205Z"></path><path d="M38.8 84.767c7.736-2.715 16.301-9.652 14.532-19.794-.9-5.13-4.477-4.99-7.266-9.233C60.498 43.762 70.263 27.132 79.05 9.565h-2c-7.446 5.65-21.898 16.968-28.404 26.381-2.599 3.773-4.588 9.293-7.266 13.855-4.538 7.726-15.112 21.191-6.607 31.003-1.38 4.612-1.2 12.367 3.998 12.537 3.258-1.727-1.36-4.601.03-8.574Zm8.306-38.76a2.59 2.59 0 0 1 2.4 1.592 2.583 2.583 0 0 1-1.888 3.53 2.591 2.591 0 0 1-2.659-1.106 2.582 2.582 0 0 1 .326-3.258 2.59 2.59 0 0 1 1.82-.757ZM36.82 74.876c-1.859-8.984 6.996-16.919 11.884-9.233.26 7.396-6.177 15.731-11.884 9.233Z"></path><path d="M56.02 51.118c13.993-5.19 30.565-7.735 38.98-18.466-9.405 1.378-18.11 3.464-27.735 4.612-2.199 6.228-7.086 9.662-11.244 13.854ZM12.384 39.939C8.156 52.166 20.8 55.909 34.172 53.794c3.788-4.812 5.847-9.982 2-15.841-4.908-7.477-20.91-6.389-23.788 1.986Zm5.277 7.257c-5.117-10.85 12.883-11.08 14.532-5.26 2.18 7.565-9.095 7.985-14.532 5.23v.03Z"></path></g></svg><svg fill="none" id="advantage-2" viewBox="0 0 95 88"><g fill="#826550"><path d="M87.972 22.266a674.162 674.162 0 0 0-1.695 5.193 42.088 42.088 0 0 1 3.486 29.262c-2.403 9.852-8.288 18.542-16.602 24.517a13.063 13.063 0 0 1 3.168 2.651c9.351-7.028 15.72-17.222 17.87-28.606 2.151-11.385-.067-23.15-6.227-33.017ZM9.605 69.849h1.352a42.231 42.231 0 0 1-6.762-26.447c.74-9.305 4.553-18.117 10.859-25.09C21.359 11.34 29.81 6.59 39.115 4.786a44.078 44.078 0 0 1 27.477 3.539 22.764 22.764 0 0 1 2.462-3.237A48.181 48.181 0 0 0 39.485.671C29.403 2.37 20.147 7.227 13.095 14.518 6.041 21.81 1.57 31.148.342 41.142a46.13 46.13 0 0 0 5.942 28.846c1.14-.11 2.27-.14 3.32-.14Z"></path><path d="M53.93 81.427c.443-6.097-.878-13.902.665-18.936 4.571-.08 9.646.347 13.268-.655C76.117 47.1 79.971 28.075 86.45 11.552V8.941c-.686-2.98-3.784-3.674-6.64-4.568h-.655c-10.695 3.406-12.108 15.987-14.6 27.425-15.942-4.11-32.59-.059-33.185 15.024-4.561.07-8.072 1.211-9.949 3.912-.575 6.703 1.584 10.675 6.64 11.826a21.93 21.93 0 0 1-7.306 12.402c-6.457.616-15.77-1.588-19.241 1.986v2.612c3.178 3.833 12.965 1.171 19.241 1.986 6.65-3.982 8.506-12.581 11.946-19.67 4.712.367 10.958-.775 14.6.655v19.59c-7.9.497-15.588 1.202-19.24 5.879h45.12c-3.289-5.253-12.591-4.588-19.25-6.573ZM38.007 46.862c.686-11.628 15.467-11.608 25.88-8.49.1 4.687-.525 10.088 1.322 13.057-7.103-.844-17.223-4.369-27.202-4.567Z"></path></g></svg><svg fill="none" id="advantage-3" viewBox="0 0 95 91"><g fill="#826550"><path d="M47.525 8.081c1.82-.006 3.601.518 5.117 1.504a9.054 9.054 0 0 1 3.4 4.038c.701 1.646.887 3.459.536 5.209a8.955 8.955 0 0 1-2.51 4.621 9.254 9.254 0 0 1-4.707 2.475 9.37 9.37 0 0 1-5.317-.508 9.158 9.158 0 0 1-4.132-3.319 8.884 8.884 0 0 1-1.552-5.009 8.92 8.92 0 0 1 2.683-6.361 9.291 9.291 0 0 1 6.482-2.65Z"></path><path d="M68.097 26.093H26.954a2.876 2.876 0 0 0-2.006.82 2.761 2.761 0 0 0-.83 1.97v4.421c.002.737.302 1.444.833 1.966a2.886 2.886 0 0 0 2.003.823h.838V80.99h-.838a2.876 2.876 0 0 0-2.006.82 2.76 2.76 0 0 0-.83 1.97v4.42c0 .74.298 1.449.83 1.973a2.886 2.886 0 0 0 2.006.827h41.143a2.886 2.886 0 0 0 2.01-.82c.532-.522.833-1.23.836-1.97v-4.43a2.771 2.771 0 0 0-.837-1.97 2.886 2.886 0 0 0-2.01-.82h-.837V36.093h.838a2.886 2.886 0 0 0 2.01-.82c.532-.522.833-1.23.836-1.969v-4.421a2.771 2.771 0 0 0-.837-1.97 2.886 2.886 0 0 0-2.01-.82Zm-34.118 10h13.324L33.98 49.15V36.093ZM61.071 80.99H47.444l13.627-13.324V80.99Zm0-28.398L33.98 79.13V64.224l27.092-26.548v14.916Z"></path><path d="M47.525 0c-9.98 0-19.708 3.078-27.803 8.8C11.627 14.52 5.576 22.595 2.427 31.876a45.68 45.68 0 0 0-.248 28.63c2.987 9.333 8.897 17.507 16.892 23.362v-.089a7.669 7.669 0 0 1 1.18-4.055C13.239 74.196 8.149 66.67 5.684 58.188a41.8 41.8 0 0 1 .808-25.826c2.99-8.32 8.542-15.524 15.888-20.62 7.346-5.097 16.125-7.834 25.126-7.834 9 0 17.78 2.737 25.126 7.834 7.346 5.096 12.898 12.3 15.888 20.62a41.8 41.8 0 0 1 .808 25.826c-2.465 8.483-7.555 16.008-14.569 21.536a7.592 7.592 0 0 1 1.192 4.055v.09c7.986-5.858 13.889-14.029 16.873-23.356a45.689 45.689 0 0 0-.246-28.616C89.433 22.62 83.39 14.548 75.305 8.823 67.219 3.1 57.5.012 47.525 0Z"></path></g></svg><svg fill="none" id="beard-1" viewBox="0 0 52 49"><path d="M51.434 0h-.243c-2.335 7.615-2.962 16.904-9.462 20.44-1.203-3.318-4.154-4.843-7.52-6.299-2.144-.92-4.6-2.535-6.673-2.614a2.24 2.24 0 0 0-1.516.317 2.24 2.24 0 0 0-1.516-.317c-2.022.08-4.539 1.694-6.672 2.615-3.366 1.455-6.318 2.97-7.521 6.298C3.801 16.904 3.184 7.615.849 0H.607A13.633 13.633 0 0 0 0 2.377C0 4.278.546 23.629 1.94 30.54c1.254 6.229 6.147 10.725 10.918 13.666C16.184 46.257 21.462 49 26 49s9.836-2.743 13.142-4.793c4.77-2.97 9.664-7.437 10.917-13.666C51.454 23.609 52 4.278 52 2.377A13.621 13.621 0 0 0 51.434 0ZM37.403 27.788c-.253 1.535-1.678 3.347-3.397 3.446-3.032.158-4.559-4.377-7.945-4.338-3.387.04-4.933 4.496-7.946 4.338-1.718-.099-3.154-1.911-3.396-3.446a7.332 7.332 0 0 1 .27-2.962 7.428 7.428 0 0 1 1.428-2.623c1.112-1.06 2.85-.921 4.73-1.189a8.875 8.875 0 0 0 4.914-1.93 8.875 8.875 0 0 0 4.913 1.93c1.88.268 3.619.129 4.73 1.189a7.428 7.428 0 0 1 1.428 2.623c.292.96.384 1.967.27 2.962Z" fill="#826550"></path></svg><svg fill="none" id="beard-2" viewBox="0 0 58 68"><path d="M51.886 21.993c.12-1.684.472-3.477.723-5.35.684-5.379 1.61-11.56-.12-16.643h-.201c-1.368 3.705-1.307 8.272-2.212 12.245a19.29 19.29 0 0 1-3.258 7.49c-.533.683-1.066 1.535-1.93 1.782-.644-3.883-4.304-4.893-7.683-6.3-2.142-.882-4.022-1.982-6.154-2.14-.676.017-1.349.093-2.01.228a11.496 11.496 0 0 0-2.012-.228c-2.162.149-4.022 1.258-6.154 2.14-3.408 1.406-7.038 2.417-7.722 6.3-.865-.247-1.398-1.1-1.93-1.783a19.594 19.594 0 0 1-3.258-7.49C7.04 8.273 7.09 3.706 5.753 0H5.51c-1.73 5.082-.824 11.264-.12 16.643.25 1.873.603 3.666.723 5.35C6.91 32.94-.874 44.897.081 50.643c.936 7.46 8.447 9.313 14.239 12.245 4.373 2.22 8.355 4.953 13.393 5.112h2.574c5.028-.208 9.05-2.903 13.394-5.112 5.791-2.972 13.303-4.785 14.238-12.245.955-5.746-6.828-17.703-6.033-28.65ZM29 25.758a37.29 37.29 0 0 1-7.2-.506c.664-2.03 4.023-1.545 7.12-1.545h.16c3.017 0 6.456-.486 7.12 1.545-2.378.401-4.79.57-7.2.506Z" fill="#826550"></path></svg><svg fill="none" id="beard-3" viewBox="0 0 63 78"><path d="M63 41.738c0-5.178-2.393-7.722-3.635-9.938a54.731 54.731 0 0 1-4.24-17.49C55.055 9.43 53.419 1.988 52.217 0c-.878 0-1.534 7.731-2.302 11.567-1.443 6.957-3.806 8.875-4.482 8.944-.768-2.792-4.15-7.314-13.812-7.682h-.252c-9.652.358-13.044 4.89-13.802 7.682-.686-.07-3.028-1.987-4.482-8.944C12.317 7.731 11.65 0 10.783 0 9.58 1.988 7.946 9.43 7.875 14.31a55.282 55.282 0 0 1-4.24 17.49C2.393 34.016 0 36.56 0 41.738c0 3.717 5.25 7.155 5.694 11.329.121 1.212 0 2.335.121 3.339C7.835 73.776 23.857 78 31.5 78c7.643 0 23.665-4.224 25.685-21.594.151-.994 0-2.127.12-3.34C57.75 48.894 63 45.465 63 41.739ZM33.56 26.593c-1.37-.13-2.75-.13-4.12 0-1.746.338-5.815.994-5.815-1.073 0-1.064 6.785-2.276 7.875-2.276 1.09 0 7.875 1.212 7.875 2.276 0 2.057-4.038 1.41-5.815 1.073Z" fill="#826550"></path></svg><svg fill="none" id="beard-4" viewBox="0 0 57 97"><path d="M51.12 15.134C50.73 9.722 50.51 4.359 48.6 0c-.76 0-1.53 7.26-2.28 10.844-1.48 7.09-3.71 8.222-4.44 8.222-.88-3.833-4.38-4.17-7.8-5.839a11.213 11.213 0 0 0-3.6-1.191c-.669-.01-1.337.03-2 .119-.663-.09-1.331-.13-2-.12-1.26.19-2.477.594-3.6 1.192-3.42 1.629-6.94 1.986-7.8 5.84-.73 0-3-1.133-4.44-8.223C9.93 7.259 9.16 0 8.4 0 6.49 4.36 6.27 9.722 5.88 15.134 5 38.51 0 51.17 0 61.966 0 87.854 11.71 97 28.5 97S57 87.854 57 61.966c0-10.795-5-23.456-5.88-46.832Zm-16.68 9.692c-2.79 1.162-5.35-.705-5.88-.715h-.12c-.53 0-3.09 1.877-5.88.715-.78-3.555 2.4-3.972 5.94-3.883 3.55-.169 6.73.288 5.94 3.883Z" fill="#826550"></path></svg><svg fill="none" id="beard-5" viewBox="0 0 45 104"><path d="M43.708 0h-.121c-2.841 21.37-5.42 22.392-7.052 22.511-1.632.12-3.667-1.757-4.956-2.501a16.225 16.225 0 0 0-9.127-2.521 16.226 16.226 0 0 0-9.127 2.52c-1.29.745-3.525 2.611-4.956 2.502C6.818 22.392 4.229 21.37 1.398 0h-.12C-.809 12.12-.295 49.826 2.485 63.127c2.63 18.382 10.184 34.838 13.54 39.305.684.992 3.555 1.558 6.466 1.568 2.912.01 5.783-.536 6.468-1.568 3.354-4.467 10.91-20.923 13.539-39.306 2.83-13.3 3.294-51.007 1.209-63.126ZM22.492 27.94c-3.411.004-6.82.18-10.214.526 1.138-1.736 9.066-3.215 10.214-3.424 1.159.209 9.067 1.688 10.215 3.424a101.504 101.504 0 0 0-10.215-.526Z" fill="#826550"></path></svg><svg fill="none" id="login" viewBox="0 0 16 16"><g opacity=".3" fill="#fff"><path d="M7 2h7v12H7v2h9V0H7v2Z"></path><path d="M7 9H0V7h7V4l4 4-4 4V9Z"></path></g></svg><svg fill="none" id="telegram" viewBox="0 0 36 36"><path d="M30.997 5.575 4.402 15.831c-1.815.729-1.804 1.742-.333 2.193l6.829 2.13 15.797-9.967c.747-.455 1.43-.21.869.288l-12.8 11.551h-.002l.002.002-.47 7.038c.69 0 .994-.317 1.381-.69l3.316-3.226 6.899 5.096c1.272.7 2.186.34 2.502-1.177L32.92 7.726c.464-1.858-.709-2.7-1.923-2.15Z" fill="#fff"></path></svg><svg fill="none" id="vk" viewBox="0 0 23 26"><path d="M21.058 23.167C22.352 21.649 23 19.926 23 17.995c0-3.225-2.62-5.478-6.29-6.291 1.58-.394 2.766-.827 3.563-1.875.796-1.048 1.194-2.22 1.194-3.515 0-1.778-.686-2.854-2.057-4.238C18.04.692 15.86 0 12.868 0H0v26h13.5c4.238 0 6.263-1.316 7.558-2.833ZM7.156 5.142h3.22c1.938 0 2.907.662 2.907 2.11 0 .532-.207 1.536-.622 2.005-.416.47-1.13.705-2.14.705H7.156v-4.82ZM7.118 20.21v-4.724h3.946c1.274 0 2.15.25 2.628.752.477.502.717 1.05.717 1.648 0 .597-.247 1.133-.738 1.61-.492.476-1.264.714-2.316.714H7.118Z" fill="#fff"></path></svg><svg fill="none" id="youtube" viewBox="0 0 36 36"><g clip-path="url(#youtube_0)"><path d="M35.25 9.76a4.179 4.179 0 0 0-1.149-1.905 4.575 4.575 0 0 0-2.007-1.113C29.277 6 17.991 6 17.991 6c-4.705-.054-9.409.182-14.085.705a4.74 4.74 0 0 0-2.007 1.14A4.345 4.345 0 0 0 .732 9.759 43.635 43.635 0 0 0 0 18c-.018 2.762.226 5.52.732 8.241a4.24 4.24 0 0 0 1.163 1.904c.556.529 1.249.912 2.011 1.114C6.761 30 17.991 30 17.991 30c4.711.054 9.42-.182 14.103-.705a4.576 4.576 0 0 0 2.007-1.113 4.17 4.17 0 0 0 1.148-1.905c.517-2.717.769-5.477.751-8.242a39.868 39.868 0 0 0-.75-8.276v.001ZM14.403 23.136v-10.27l9.39 5.136-9.39 5.134Z" fill="#fff"></path></g><defs><clipPath id="youtube_0"><path fill="#fff" d="M0 0h36v36H0z"></path></clipPath></defs></svg></svg>